<svg width="122" height="38" viewBox="0 0 122 38" fill="none" xmlns="http://www.w3.org/2000/svg">
<rect width="121.729" height="38" rx="19" fill="#1E227E"/>
<path d="M22.3165 8.46918V16.6395C23.6293 14.9391 25.2404 14.4318 26.9105 14.4318C31.0866 14.4318 32.9353 17.2648 32.9353 21.5908V29.3463H29.2968V21.6243C29.2968 18.9397 27.8947 17.8055 25.955 17.8055C23.8079 17.8055 22.3165 19.6256 22.3165 21.8316V29.3495H18.678V8.46918H22.3165Z" fill="#9381FF"/>
<path d="M39.9747 10.4982C39.9747 13.3312 35.6805 13.3312 35.6805 10.4982C35.6805 7.66522 39.9747 7.66363 39.9747 10.4982ZM36.0075 14.5833V29.3495H39.6476V14.5833H36.0075Z" fill="#9381FF"/>
<path d="M55.5464 27.4705C53.846 29.1406 52.0562 29.7962 49.8789 29.7962C45.6135 29.7962 42.0627 27.2312 42.0627 22.0119C42.0627 16.7927 45.6135 14.2261 49.8789 14.2261C51.9669 14.2261 53.5764 14.8227 55.1875 16.4034L52.8905 18.8201C52.082 18.0835 51.0315 17.6692 49.9379 17.6556C47.4925 17.6556 45.7028 19.4454 45.7028 22.0119C45.7028 24.8146 47.617 26.3061 49.8789 26.3061C51.0417 26.3061 52.2046 25.9791 53.0994 25.0842L55.5464 27.4705Z" fill="#9381FF"/>
<path d="M71.7721 21.7747C71.7721 26.0098 68.8786 29.4393 64.1059 29.4393C59.3332 29.4393 56.47 26.0098 56.47 21.7747C56.47 17.5683 59.3939 14.1085 64.0772 14.1085C68.7605 14.1085 71.7721 17.5683 71.7721 21.7747ZM60.1101 21.7747C60.1101 24.0079 61.4516 26.0991 64.0979 26.0991C66.7443 26.0991 68.0953 24.0111 68.0953 21.7747C68.0953 19.567 66.5449 17.4184 64.0979 17.4184C61.4819 17.4184 60.1101 19.567 60.1101 21.7747Z" fill="#B8B8FF"/>
<path d="M88.8944 22.0119C88.8944 26.247 86.0008 29.6766 81.2282 29.6766C76.4555 29.6766 73.5922 26.247 73.5922 22.0119C73.5922 17.8056 76.5145 14.3457 81.1979 14.3457C85.8812 14.3457 88.8944 17.8056 88.8944 22.0119ZM77.2307 22.0119C77.2307 24.2451 78.5738 26.3364 81.2282 26.3364C83.8825 26.3364 85.2256 24.2483 85.2256 22.0119C85.2256 19.8043 83.6735 17.6556 81.2282 17.6556C78.6026 17.6556 77.2307 19.8043 77.2307 22.0119Z" fill="#B8B8FF"/>
<path d="M95.0085 8.50427V29.3495H91.4003V8.50427H95.0085Z" fill="#9381FF"/>
<path d="M102.407 27.4705C102.407 30.3034 98.1111 30.3034 98.1111 27.4705C98.1111 24.6375 102.407 24.6359 102.407 27.4705Z" fill="#9381FF"/>
<path d="M71.5712 20.4678H73.7757V23.5161H71.0942L71.5712 20.4678Z" fill="#B8B8FF"/>
</svg>
